<svg id="レイヤー_1" data-name="レイヤー 1" xmlns="http://www.w3.org/2000/svg" viewBox="0 0 834 514"><defs><style>.cls-1{fill:#41b510;}.cls-2{fill:#fff;}</style></defs><path class="cls-1" d="M323.35,405.48c-5.26,8.45-10.13,8.45-10.75,8.45a5.69,5.69,0,0,1-4.92-2.35c2.29-1.56,5-5.2,7.22-9.51l-4-1.62,3-6.21a31.5,31.5,0,0,1,3.91.56,26.22,26.22,0,0,0,1.23-5.54c-7,0-6.82-.11-6.82-.11s-.11-1.07-.17-2.91c-2.85,4.75-5.88,9-10.8,9a6.26,6.26,0,0,1-4.59-2,86,86,0,0,0,10.47-15.56l7,4.87-.9,1.68c4.76-.39,10-.45,13.1-.45h2.74A45.36,45.36,0,0,1,327,397.32a4.91,4.91,0,0,1,2.52,4.3,6.93,6.93,0,0,1-2.75,5.26Z"/><path class="cls-1" d="M369.4,384.89c7.78-.5,34-1,34-1,.11,1.51.22,3.19.22,5,0,17.17-9.18,24.67-15.89,24.67a6.22,6.22,0,0,1-2.41-.39c3.25-4.25,7-12.65,7-19.81a15.24,15.24,0,0,0-.23-2.85c-7.49,0-22.38-.28-22.38-.28Zm27.42-6,2.46-3c2.69.5,3.7,1.9,3.7,3.24a2.91,2.91,0,0,1-2.86,2.86,3.2,3.2,0,0,1-1.17-.28Zm6.32,0,2.47-3c2.68.5,3.69,1.9,3.69,3.24a2.9,2.9,0,0,1-2.86,2.86,3.2,3.2,0,0,1-1.17-.28Z"/><path class="cls-1" d="M474,387.86c-5.66,11.41-13.71,21.71-19.7,24.34a9.76,9.76,0,0,1-4,.78c-3.41,0-6.82-1.45-8.11-3.75,6.38-2.52,16.51-14.43,23.5-27.19Z"/><path class="cls-1" d="M527.09,413.54l-1.39-9.9-11.14,1.51-1.4-6.66c2.52-.22,6.83-.56,11.7-.9l-.84-6.43-7.73.28-.61-7c1.57-.12,4.25-.34,7.33-.51-.39-3.24-.67-5.31-.67-5.31l9.17-.73c.34,1.51.79,3.36,1.18,5.43,2.74-.17,5.26-.28,7.16-.34l.06,7.55-5.82.45c.33,2,.67,4,.95,6,4-.28,7.67-.45,10.46-.56l.51,4.42L535.77,403c.33,3.19.56,6.1.56,8.62v.84Z"/><path class="cls-1" d="M395.69,177.66h0c.2.25.39.51.58.78C396.07,178.17,395.88,177.92,395.69,177.66Z"/><path class="cls-1" d="M499.14,191a59.91,59.91,0,0,1-37.74,13.89,51.8,51.8,0,0,1-8.89-.76,43.65,43.65,0,0,1-12.87-4.61c-.81-.4-1.6-.83-2.38-1.27a2.32,2.32,0,0,1-.56-3.57c1.44-1.58,2.95-3.2,4.56-4.86a2.32,2.32,0,0,1,2.74-.43c.19.11.39.21.59.31a32.62,32.62,0,0,0,9.81,3.59c12.78,2.22,26.89-1.8,37.73-10.77,19.59-16.21,26.73-45.42,18.17-74.41a127.48,127.48,0,0,0-9.19-22.48c-.71-1.37-1.44-2.85-2.19-4.37h0c-1.37,11.67-5.26,21.56-11.59,29.43-8.9,11.06-21.19,15.7-33.07,20.19-2.82,1.07-5.74,2.17-8.52,3.33-10.71,4.48-17.37,9.88-20.35,16.53-2.43,5.4-2.49,12.27-.16,18.84a33.56,33.56,0,0,0,3.74,7.39c6.89-7,14.15-13.54,21.14-19.5a6,6,0,0,1,8.58.82,5.53,5.53,0,0,1,.48.71l.15.27c0,.1.09.2.14.3s.12.28.17.43l.13.43c0,.1.05.2.07.3a6,6,0,0,1,.1.74c0,.14,0,.29,0,.44a6.35,6.35,0,0,1-2.24,4.85c-8,6.79-14.71,13.1-20.43,19q-4.09,4.2-7.5,8.1C409.25,217.26,406,233.16,406,245a6,6,0,0,1-1.37,3.82q-.18.21-.39.42A5.94,5.94,0,0,1,400,251h-.28a6.18,6.18,0,0,1-5.72-6.33c.08-5.73,2.16-15.12,3.29-19.81a22.17,22.17,0,0,0,.61-6.39c0-.59-.07-1.17-.12-1.75s-.08-.9-.13-1.35-.07-.65-.11-1l-.09-.77c-.06-.43-.12-.85-.19-1.28s-.13-.87-.21-1.31c0-.15-.05-.3-.08-.45l-.21-1.12c-.2-1-.43-2-.67-3a64.52,64.52,0,0,0-2.4-7.58,31.55,31.55,0,0,1-9.7,5,28.53,28.53,0,0,1-8.41,1.28,24.47,24.47,0,0,1-10.94-2.47c-6.53-3.26-11.42-9.49-14.95-19-.76-2-1.44-4.08-2.09-6.07-2.39-7.19-4.64-14-9.88-18.58-3.93-3.44-9.17-5.63-15.58-6.51a8.86,8.86,0,0,1-2.42-16.85l1.47-.65,2.38-1.08a95,95,0,0,1,16.87-6.09c23.12-5.79,46.14,1.08,58.62,17.52,7.28,9.57,10.2,20.88,7.8,31.93v.05a2.29,2.29,0,0,1-4.17.69,68.38,68.38,0,0,0-5.46-7.48,2.29,2.29,0,0,1-.54-1.46c-.07-6.27-2.31-11.73-6.37-17.08-11.94-15.7-32.89-17.09-47.19-13.5A81.08,81.08,0,0,0,330.27,143,37.4,37.4,0,0,1,345,150.76c7.5,6.57,10.34,15.13,13.08,23.4.66,2,1.28,3.86,2,5.71,2.49,6.71,5.7,11.1,9.56,13a15.31,15.31,0,0,0,11.2.52,21.25,21.25,0,0,0,7.93-4.6,46.34,46.34,0,0,0-10.41-12.1,6,6,0,0,1-1.81-7,3.82,3.82,0,0,1,.21-.46s0-.05,0-.08a3.26,3.26,0,0,1,.24-.4,4.37,4.37,0,0,1,.31-.44,4.71,4.71,0,0,1,.36-.42,5.91,5.91,0,0,1,4.32-1.83,6.31,6.31,0,0,1,3.93,1.37c.46.37.91.74,1.36,1.13s1,.85,1.45,1.29a56.48,56.48,0,0,1,7,7.82c.2.25.39.51.58.78a69.08,69.08,0,0,1,6.28,10.64h0l.39.83c.19.41.38.83.56,1.24s.26.59.38.89c.24.54.46,1.08.67,1.63s.32.82.48,1.23c.58,1.52,1.11,3.08,1.58,4.65.1.29.19.59.27.89.24.8.46,1.61.67,2.42,0,.09,0,.19.07.28a145,145,0,0,1,13.72-18,44,44,0,0,1-6.47-11.92c-3.26-9.22-3.08-19.07.49-27,4.19-9.31,12.74-16.57,26.15-22.17,2.95-1.23,6-2.37,8.87-3.47,11-4.15,21.37-8.07,28.39-16.8,5.25-6.52,8.4-15,9.38-25.19a10.42,10.42,0,0,1,8.19-9.26c4.47-1,9.86,1.83,11.89,5.93.31.61.6,1.21.9,1.8.6,1.23,1.19,2.41,1.76,3.52a137.53,137.53,0,0,1,10,24.41C530.66,138.18,522.13,171.93,499.14,191Z"/><path class="cls-1" d="M396.26,178.44c-.19-.27-.38-.53-.58-.78h0C395.88,177.92,396.07,178.17,396.26,178.44Z"/><path class="cls-2" d="M395.69,177.66h0c.2.25.39.51.58.78C396.07,178.17,395.88,177.92,395.69,177.66Z"/><path class="cls-1" d="M502.42,338.25H445.19a16,16,0,0,1-16-16V261.94a4,4,0,0,0-4-4H310.73a4,4,0,0,0-4,4v60.31a16,16,0,0,1-16,16H233.5a6,6,0,0,1,0-12h57.23a4,4,0,0,0,4-4V261.94a16,16,0,0,1,16-16H425.19a16,16,0,0,1,16,16v60.31a4,4,0,0,0,4,4h57.23a6,6,0,1,1,0,12Z"/><path class="cls-1" d="M607,338.25H549.77a16,16,0,0,1-16-16V261.94a4,4,0,0,0-4-4h-56a6,6,0,0,1,0-12h56a16,16,0,0,1,16,16v60.31a4,4,0,0,0,4,4H607a6,6,0,0,1,0,12Z"/></svg>