<svg id="レイヤー_1" data-name="レイヤー 1" xmlns="http://www.w3.org/2000/svg" viewBox="0 0 195.37 181.53"><defs><style>.cls-1{fill:#724c33;}.cls-2{fill:#41b510;}.cls-3{fill:#fff;}</style></defs><path class="cls-1" d="M62,148.2c-2.11,3.4-4.07,3.4-4.31,3.4a2.28,2.28,0,0,1-2-.95,11.19,11.19,0,0,0,2.9-3.82l-1.6-.66,1.22-2.49a13.24,13.24,0,0,1,1.57.22,10.13,10.13,0,0,0,.49-2.22,19.45,19.45,0,0,1-2.74-.05s0-.43-.07-1.17c-1.14,1.91-2.36,3.62-4.34,3.62a2.52,2.52,0,0,1-1.84-.81,34.17,34.17,0,0,0,4.2-6.25l2.82,2-.36.67c1.91-.16,4-.18,5.26-.18h1.1a18.4,18.4,0,0,1-.83,5.45,2,2,0,0,1,1,1.73,2.78,2.78,0,0,1-1.1,2.11Z"/><path class="cls-1" d="M80.49,139.92c3.13-.2,13.66-.4,13.66-.4,0,.6.09,1.28.09,2,0,6.9-3.69,9.92-6.39,9.92a2.56,2.56,0,0,1-1-.16,14.87,14.87,0,0,0,2.81-8,6,6,0,0,0-.09-1.15c-3,0-9-.11-9-.11Zm11-2.43,1-1.21c1.08.2,1.49.76,1.49,1.3a1.17,1.17,0,0,1-1.15,1.15,1.51,1.51,0,0,1-.47-.11Zm2.55,0,1-1.21c1.08.2,1.48.76,1.48,1.3a1.16,1.16,0,0,1-1.15,1.15,1.51,1.51,0,0,1-.47-.11Z"/><path class="cls-1" d="M122.54,141.11c-2.27,4.59-5.51,8.73-7.92,9.79a4,4,0,0,1-1.62.31,3.81,3.81,0,0,1-3.26-1.5c2.56-1,6.64-5.81,9.45-10.94Z"/><path class="cls-1" d="M143.89,151.44l-.56-4-4.48.6-.56-2.67c1-.09,2.74-.23,4.7-.36l-.34-2.59-3.1.11-.25-2.81c.63,0,1.71-.13,2.95-.2-.16-1.31-.27-2.14-.27-2.14l3.69-.29c.13.61.31,1.35.47,2.18,1.1-.07,2.12-.11,2.88-.13l0,3-2.34.18c.14.79.27,1.6.39,2.41,1.59-.11,3.08-.18,4.2-.22l.2,1.77-4.11.88c.13,1.28.22,2.45.22,3.46V151Z"/><path class="cls-2" d="M91.06,57h0l.23.31Z"/><path class="cls-2" d="M132.65,62.35a24.08,24.08,0,0,1-15.17,5.59,20.44,20.44,0,0,1-3.58-.31,16,16,0,0,1-4.16-1.36l-.22-.1A2.21,2.21,0,0,1,110.58,62a2.27,2.27,0,0,1,.86.17l.19.1a11.11,11.11,0,0,0,3,1,19.06,19.06,0,0,0,15.17-4.33c7.88-6.51,10.75-18.26,7.31-29.91a50.87,50.87,0,0,0-3.7-9c-.28-.55-.57-1.15-.88-1.76A25.6,25.6,0,0,1,131,24.72a20.13,20.13,0,0,1-3.08,5.34c-3.57,4.45-8.52,6.32-13.29,8.12-1.14.43-2.31.87-3.43,1.34-4.3,1.8-7,4-8.18,6.65a10.27,10.27,0,0,0-.06,7.57,13.37,13.37,0,0,0,1.5,3c2.77-2.82,5.69-5.44,8.5-7.84a2.42,2.42,0,0,1,3.45.33,1.81,1.81,0,0,1,.19.29l.06.11.06.12c0,.05,0,.11.07.17a.84.84,0,0,0,0,.17l0,.12c0,.1,0,.2,0,.3s0,.12,0,.18a2.6,2.6,0,0,1-.9,2c-3.21,2.73-5.92,5.26-8.22,7.63-1.1,1.12-2.1,2.21-3,3.25-8.26,9.44-9.57,16.08-9.57,20.84a2.43,2.43,0,0,1-.55,1.53l-.16.17a2.38,2.38,0,0,1-1.7.71h-.12a2.49,2.49,0,0,1-2.3-2.54A48.9,48.9,0,0,1,91.7,76,8.91,8.91,0,0,0,92,73.41c0-.24,0-.47,0-.7s0-.37-.05-.55,0-.26,0-.39l0-.31c0-.17,0-.34-.08-.52s0-.35-.08-.52,0-.12,0-.18,0-.31-.08-.45c-.08-.41-.17-.8-.27-1.19a25.27,25.27,0,0,0-1-3,12.69,12.69,0,0,1-3.9,2,11.38,11.38,0,0,1-3.38.52,9.84,9.84,0,0,1-4.4-1c-2.63-1.31-4.59-3.81-6-7.65-.31-.82-.58-1.64-.84-2.44-1-2.89-1.87-5.63-4-7.47a11.78,11.78,0,0,0-6.26-2.62,3.56,3.56,0,0,1-1-6.77l.59-.26,1-.44A38.27,38.27,0,0,1,68.85,37c9.29-2.32,18.55.44,23.57,7.05a16.37,16.37,0,0,1,3.42,8.7c0,.1,0,.2,0,.29v0a2.21,2.21,0,0,1-4.42,0V53A11.43,11.43,0,0,0,88.9,46.7c-4.8-6.31-13.23-6.87-19-5.43a33.49,33.49,0,0,0-5.16,1.8,14.93,14.93,0,0,1,5.9,3.12c3,2.64,4.16,6.08,5.26,9.41.27.8.52,1.55.79,2.29,1,2.7,2.29,4.47,3.84,5.24a6.19,6.19,0,0,0,4.51.21,8.74,8.74,0,0,0,3.19-1.85,18.71,18.71,0,0,0-4.19-4.87,2.4,2.4,0,0,1-.73-2.82l.09-.19s0,0,0,0a.86.86,0,0,1,.1-.16l.12-.18.15-.17a2.37,2.37,0,0,1,1.74-.73,2.53,2.53,0,0,1,1.58.55l.54.45c.2.17.4.34.59.52A23,23,0,0,1,91.06,57l.23.31a26.6,26.6,0,0,1,2.52,4.28h0c.06.11.11.22.16.33s.15.34.23.5l.15.36c.1.22.18.43.27.66s.13.33.19.49c.23.61.45,1.24.64,1.87,0,.12.07.24.11.36.09.32.18.65.26,1l0,.11A58.44,58.44,0,0,1,101.37,60a17.58,17.58,0,0,1-2.6-4.79A14.84,14.84,0,0,1,99,44.35c1.69-3.74,5.13-6.66,10.52-8.91,1.18-.5,2.39-.95,3.56-1.4,4.42-1.66,8.6-3.24,11.42-6.75a18.65,18.65,0,0,0,3.77-10.13,4.19,4.19,0,0,1,3.29-3.72,4.62,4.62,0,0,1,4.78,2.38c.13.25.24.49.36.73.25.49.48,1,.71,1.41a55.52,55.52,0,0,1,4,9.82C145.32,41.13,141.9,54.7,132.65,62.35Z"/><path class="cls-2" d="M91.29,57.32,91.06,57h0Z"/><path class="cls-3" d="M91.06,57h0l.23.31Z"/><path class="cls-2" d="M134,121.17H111a6.44,6.44,0,0,1-6.43-6.44V90.49a1.61,1.61,0,0,0-1.61-1.61h-46a1.62,1.62,0,0,0-1.61,1.61v24.24a6.44,6.44,0,0,1-6.43,6.44h-23a2.42,2.42,0,0,1,0-4.83h23a1.61,1.61,0,0,0,1.61-1.61V90.49a6.44,6.44,0,0,1,6.43-6.43h46a6.43,6.43,0,0,1,6.43,6.43v24.24a1.61,1.61,0,0,0,1.61,1.61h23a2.42,2.42,0,0,1,0,4.83Z"/><path class="cls-2" d="M176,121.17H153a6.45,6.45,0,0,1-6.44-6.44V90.49a1.61,1.61,0,0,0-1.6-1.61h-22.5a2.41,2.41,0,1,1,0-4.82H145a6.44,6.44,0,0,1,6.43,6.43v24.24a1.61,1.61,0,0,0,1.61,1.61h23a2.42,2.42,0,0,1,0,4.83Z"/></svg>